
<svg id="Capa_1" data-name="Capa 1" xmlns="http://www.w3.org/2000/svg" viewBox="0 0 98.41 98.41"><defs><style>.cls-1{fill:#fff;}.cls-2{fill:#a51c30;}</style></defs><circle class="cls-1" cx="49.21" cy="49.21" r="49.21"/><path class="cls-2" d="M23,22.86h54V43.27c0,9.33-3.51,29.19-26.78,44,0,0-25.31-10.53-27.25-44Z" transform="translate(-0.79 -0.79)"/><path d="M40.8,55.06a.54.54,0,0,0-.35.15,1.2,1.2,0,0,0-.3.39,1.22,1.22,0,0,1-1,.35,3.56,3.56,0,0,1-.73-.1h0a1.44,1.44,0,0,0-.92.64.51.51,0,0,0-.07.26.77.77,0,0,0,0,.1V59a.32.32,0,0,1-.15.24.62.62,0,0,1-.28.09,1.54,1.54,0,0,1-.4,0h0a1.86,1.86,0,0,0-1.5.23,1.19,1.19,0,0,0-.42.45,1.16,1.16,0,0,0-.11,1h0l.07.15h0c.27.73,1.29.73,1.29.73a1.35,1.35,0,0,0,1,.1.41.41,0,0,1,.37.17.76.76,0,0,1,0,.28h0v0a2.2,2.2,0,0,1,0,.33c0,.17,0,.4,0,.67,0,.54,0,1.22,0,1.89,0,1.34,0,2.63,0,2.63a2.49,2.49,0,0,1-.09.72h0s0,0,0,0a.32.32,0,0,1-.13.06,2.07,2.07,0,0,1-.46,0,6.67,6.67,0,0,1-.68,0h0a1.52,1.52,0,0,0-1.26,1h0a.72.72,0,0,0,0,.52.66.66,0,0,0,.11.24,2.09,2.09,0,0,0,.62.75c0,.18,1.76.27,1.76.27a.37.37,0,0,1,.23.19s0,0,0,0a1.5,1.5,0,0,1,0,.32.74.74,0,0,0,0,.18c0,.09,0,.2,0,.32s0,.56,0,.85c0,.59.08,1.15.08,1.15h0a.33.33,0,0,0,.07.16h0c.09.56,1.85.37,1.85.37S45.53,75,47.19,75a2.38,2.38,0,0,1,.41,0,5.58,5.58,0,0,0,.65-.09l.64.46a1.17,1.17,0,0,0,.78.25l.14,0a2,2,0,0,0,.84-.41l.92-.19L59.24,75a.92.92,0,0,0,.92-.09l1.2-.1h.13a.69.69,0,0,0,.52-.51.91.91,0,0,0,.07-.14,1.58,1.58,0,0,0,.09-.54V72a1.6,1.6,0,0,1,.08-.3.69.69,0,0,1,.4-.35l1.11-.19.56-.27a.59.59,0,0,0,.39-.39l0-.07a1.26,1.26,0,0,0,.1-.54,3,3,0,0,0-.09-.69h0a1.39,1.39,0,0,0-1.07-.64,3.75,3.75,0,0,0-.76,0h0c-.44,0-.61-.08-.69-.21a.51.51,0,0,1-.06-.26h0l.1-5.73a2,2,0,0,1,.16-.52,1.57,1.57,0,0,1,.13-.22,3.64,3.64,0,0,0,1.2-.19.94.94,0,0,0,.85-.65l0,0a1.29,1.29,0,0,0,.12-.5,1,1,0,0,0-.45-.87,3.07,3.07,0,0,0-.52-.32H62.48a.2.2,0,0,1-.1-.07.51.51,0,0,1-.08-.18,2.84,2.84,0,0,1-.07-.55,5.85,5.85,0,0,1,0-.78h0v-.74a1,1,0,0,0-.5-.77,2.16,2.16,0,0,0-.48-.22H59.63a.54.54,0,0,0-.14-.16,1.31,1.31,0,0,0-.27-.12,2.89,2.89,0,0,0-.34-.09,3.23,3.23,0,0,0-.75-.09h-.05a5.33,5.33,0,0,1-2.44.63,15.35,15.35,0,0,1-1.57,0l-2.9-.19,0,0,0,0-.12,0-.34.06-.47.06h0l0,0a.55.55,0,0,1-.32.32l-.25.09a1.8,1.8,0,0,0-.68-.33l-.5-.13h-.7l-1.39.06-2,.13a5.87,5.87,0,0,1-2.41-.33,2.1,2.1,0,0,1-.67-.38.56.56,0,0,0-.39-.26Zm0,.16a.34.34,0,0,1,.28.19h0a2.26,2.26,0,0,0,.73.42,6,6,0,0,0,2.47.34h0s1-.07,2-.12L47.67,56h.65a4.48,4.48,0,0,1,.49.12,1.87,1.87,0,0,1,.68.32l0,0,.32-.11a1,1,0,0,0,.33-.31.61.61,0,0,1-.35.33l-.28.19a3.3,3.3,0,0,0-1.2-.46c-.09-.09-4.07.18-4.07.18-2.31.09-3.14-.74-3.14-.74-.46-.64-.92.28-.92.28-.46.65-1.85.28-1.85.28a1.45,1.45,0,0,0-.84.55.22.22,0,0,1,0-.1,1.36,1.36,0,0,1,.83-.56,3.23,3.23,0,0,0,.73.1,1.32,1.32,0,0,0,1.16-.41h0a1.36,1.36,0,0,1,.27-.36.32.32,0,0,1,.24-.1Zm17.36.13a2.93,2.93,0,0,1,.69.09h0l.32.08a.82.82,0,0,1,.23.11l0,0a1.73,1.73,0,0,0-.57-.19,3.07,3.07,0,0,0-.74-.09c-1.2.83-4.07.65-4.07.65l-2.86-.19a4.51,4.51,0,0,1-1,.18h0l.46-.06.35-.06.14,0,.05,0,2.85.18a12.86,12.86,0,0,0,1.59,0,5.41,5.41,0,0,0,2.5-.64Zm1.45.46h1.66l.29.14a2.38,2.38,0,0,0-.28-.12H59.61v0Zm2,.15.11.06,0,0L61.58,56Zm.66,3a.13.13,0,0,0,0,0,.33.33,0,0,0,.19.13h1.28a2.31,2.31,0,0,1,.47.29,1.22,1.22,0,0,1,.37.48,1.94,1.94,0,0,0-.66-.58l-.16-.08H62.47c-.11,0-.19-.14-.23-.29Zm-24.85.28c-.23.44-.88.28-.88.28a1.59,1.59,0,0,0-1.84.65s0,0,0,0a.82.82,0,0,1,.09-.19h0a1.14,1.14,0,0,1,.38-.4,1.78,1.78,0,0,1,1.38-.21,1.66,1.66,0,0,0,.45,0,.76.76,0,0,0,.35-.11l.09-.09Zm24.73,9.14c.11.17.35.32.82.27a3.37,3.37,0,0,1,.72,0,1.28,1.28,0,0,1,1,.56.35.35,0,0,1,0,.06c-.43-.64-1.7-.56-1.7-.56-.6.06-.77-.19-.81-.38Zm-24.86.44v0a.14.14,0,0,1-.06.12A.42.42,0,0,1,37,69a4.3,4.3,0,0,1-1.17,0,1.43,1.43,0,0,0-1.13.76,1.37,1.37,0,0,1,1.14-.87,5.57,5.57,0,0,0,.68,0,2.49,2.49,0,0,0,.5,0,.51.51,0,0,0,.18-.09,0,0,0,0,0,0,0ZM43.7,29.43l0,0a4.43,4.43,0,0,1-3.53.63h0a24,24,0,0,0-2.69.09h0l0,0a.6.6,0,0,1-.69.18,1.4,1.4,0,0,1-.4-.19.32.32,0,0,0-.18-.12,1.18,1.18,0,0,0-.27-.06l-.34,0h0a15.64,15.64,0,0,1-4-.13,4,4,0,0,1-.78-.22,1.28,1.28,0,0,1-.21-.1h0a.2.2,0,0,0-.09-.05l-.12,0-.29,0h-.43l0,0a6.06,6.06,0,0,1-.35.53h-.28a4.5,4.5,0,0,1-.52,0l-.72,0h0a1,1,0,0,0-.75.25.6.6,0,0,0-.16.27h0l-.09,1.77h0a1.76,1.76,0,0,1,0,.83l0,0-.06,0,0,.06a.41.41,0,0,1-.25.11,2.14,2.14,0,0,1-.45,0c-.32,0-.62,0-.62,0h0a.85.85,0,0,0-.57.31,1.4,1.4,0,0,0-.26.57,2.66,2.66,0,0,0-.07.77h0a.8.8,0,0,0,.37.54,1.41,1.41,0,0,0,.59.19,2.87,2.87,0,0,0,.77,0h0c.49,0,.67.2.74.32a.31.31,0,0,1,0,.23h0c0,.19,0,1.71.05,3.19s0,2.89,0,2.9a.77.77,0,0,1-.13.4.38.38,0,0,1-.21.12.55.55,0,0,1-.29,0h0c-1,0-1.51.36-1.71.74a1.26,1.26,0,0,0-.12.74,1.17,1.17,0,0,0,.87,1.1,2.09,2.09,0,0,0,.78.07h0c.49,0,.69.13.78.25a.31.31,0,0,1,.06.22v0s0,.05,0,.12v.27c0,.22,0,.49,0,.75,0,.53-.08,1-.08,1h0a.92.92,0,0,0,.68.81,1,1,0,0,0,.5,0h0l7.37.19c1.05.76,1.73.78,2.14.57a1,1,0,0,0,.51-.6l.12,0a3.93,3.93,0,0,0,.48,0h3.37l2.4,0h1.16a1.31,1.31,0,0,0,.72,0,.81.81,0,0,0,.39-.33,1.2,1.2,0,0,0,.16-.56h0l.09-2.2a.58.58,0,0,1,.36-.32,1.43,1.43,0,0,1,.31-.08c1,.13,1.53-.23,1.75-.63a1.58,1.58,0,0,0,.17-.84h0A1.25,1.25,0,0,0,48.61,43a1.83,1.83,0,0,0-.74-.12h0a.9.9,0,0,1-.83-.34.62.62,0,0,1-.11-.32h0c0-.16,0-.55.05-1.09s0-1.23,0-1.88c0-1.32,0-2.57,0-2.57a1.26,1.26,0,0,1,.13-.44,2.08,2.08,0,0,1,.12-.22A3.21,3.21,0,0,0,48.59,36a1.14,1.14,0,0,0,.62-.49,1.07,1.07,0,0,0,.12-.8,1.12,1.12,0,0,0-.13-.79.88.88,0,0,0-.49-.35,1.69,1.69,0,0,0-.74,0c-.63,0-.85-.18-.93-.33a.47.47,0,0,1,0-.31h0A5.26,5.26,0,0,0,47,31a1.59,1.59,0,0,0-.21-.57h0a.82.82,0,0,0-.39-.11,4.78,4.78,0,0,0-.54,0c-.36,0-.69,0-.69,0h0l0,0c-.06,0-.13,0-.23,0a1.14,1.14,0,0,1-.31-.25,3.5,3.5,0,0,1-.36-.46l0,0Zm26.14,0,0,0a4.45,4.45,0,0,1-3.54.63h0a22.79,22.79,0,0,0-2.59.09h0l0,0a.6.6,0,0,1-.69.18,1.43,1.43,0,0,1-.4-.19.32.32,0,0,0-.18-.12,1.18,1.18,0,0,0-.27-.06,3.33,3.33,0,0,0-.34,0h0a15.69,15.69,0,0,1-4-.13,4,4,0,0,1-.78-.22,1.28,1.28,0,0,1-.21-.1h0a.2.2,0,0,0-.09-.05l-.12,0-.29,0h-.43l0,0a6.06,6.06,0,0,1-.35.53h-.28a4.5,4.5,0,0,1-.52,0l-.72,0h0a1.16,1.16,0,0,0-.82.25.55.55,0,0,0-.18.27v1.87a1.41,1.41,0,0,1,0,.74l0,0h0l-.06,0,0,.06a.41.41,0,0,1-.25.11,2.14,2.14,0,0,1-.45,0c-.32,0-.62,0-.62,0h0a1,1,0,0,0-.62.31,1.29,1.29,0,0,0-.29.57,2.48,2.48,0,0,0-.08.77h0a.8.8,0,0,0,.37.54,1.41,1.41,0,0,0,.59.19,2.87,2.87,0,0,0,.77,0h0c.49,0,.67.2.73.32a.29.29,0,0,1,0,.23h0a2.36,2.36,0,0,0,0,.38c0,.2,0,.45,0,.75v2.08c0,1.47,0,2.89,0,2.9a.8.8,0,0,1-.14.4.33.33,0,0,1-.2.12.55.55,0,0,1-.29,0h0c-1,0-1.51.36-1.71.74a1.35,1.35,0,0,0,.75,1.84,2.09,2.09,0,0,0,.78.07h0a.9.9,0,0,1,.75.25.39.39,0,0,1,.1.23v0h0s0,.05,0,.12a1.2,1.2,0,0,1,0,.27c0,.21,0,.49,0,.75l-.08,1h0a.9.9,0,0,0,.68.81,1,1,0,0,0,.5,0h0l7.38.19c1,.76,1.73.79,2.13.58a1.1,1.1,0,0,0,.53-.63h0a.17.17,0,0,1,.13-.09h0s0,0,0,0l0,.09h.1a2.42,2.42,0,0,0,.48,0h3.37l2.4,0h1.15a1.44,1.44,0,0,0,.76,0,.72.72,0,0,0,.39-.33,1,1,0,0,0,.13-.57h0l.09-2.2a.55.55,0,0,1,.36-.32,1.43,1.43,0,0,1,.31-.08c1,.13,1.53-.23,1.75-.63a1.58,1.58,0,0,0,.17-.84h0A1.25,1.25,0,0,0,74.75,43a1.83,1.83,0,0,0-.74-.12h0c-.54,0-.76-.18-.86-.34a.53.53,0,0,1-.08-.32h0c0-.54.09-5.54.09-5.54h0a1.26,1.26,0,0,1,.13-.44,1.88,1.88,0,0,1,.12-.23A3.07,3.07,0,0,0,74.73,36a1.09,1.09,0,0,0,.74-1.29,1.17,1.17,0,0,0-.13-.79.92.92,0,0,0-.49-.35,1.69,1.69,0,0,0-.74,0c-.63,0-.85-.18-.93-.33a.47.47,0,0,1,0-.31v0a5.26,5.26,0,0,0,0-1.88,1.59,1.59,0,0,0-.21-.57h0a.86.86,0,0,0-.4-.11,4.52,4.52,0,0,0-.53,0c-.36,0-.69,0-.69,0h0l0,0c-.06,0-.13,0-.23,0a1.34,1.34,0,0,1-.32-.25,3,3,0,0,1-.35-.46l0,0Z" transform="translate(-0.79 -0.79)"/><path d="M50.19,87.51,50,87.42c-.18-.09-25.4-11-27.34-44.15V22.49H77.34V43.18c0,8.13-2.59,28.81-27,44.15ZM23.31,23.13V43.18c1.84,31.4,24.75,42.67,26.88,43.59,23.92-15.24,26.5-35.56,26.5-43.59v-20Z" transform="translate(-0.79 -0.79)"/><path class="cls-1" d="M30.79,30.25s-.56,0-.46.37l-.19,14s0,.65,1,.74a9,9,0,0,0,1.57,0h3s.56.55.56-.1c0,0,.37-11.35.18-13.76,0,0,0-1-.83-1,0,0-3.32.27-3.6,0Zm12.82,0a1.5,1.5,0,0,0-.63.16s.09.37-4.06.19c-.1,0-1.67,0-1.76.65,0,0-.09,6.65-.09,6.83L37,43.64l-.1,1.94s.28.37.47.09a6.54,6.54,0,0,1,2.31-.18s2.77.28,3.41-.19c0,0,.47.19.56-.46,0,0,.18-12.28.09-12.47a12.69,12.69,0,0,0,.09-1.94s0-.14-.2-.16Zm-15.23.35a1.42,1.42,0,0,0-.82.46l-.1,1.85s0,1-.92.92a2.89,2.89,0,0,0-1.57.46s-.28.93.74.83c0,0,1.57,0,1.66.65l-.09,6.65a.79.79,0,0,1-.83,1.11S25,43.46,25,44.38c0,0,.28.74,1.57.56,0,0,.92.18.83,1v1.66s-.09.65.83.74H35a.36.36,0,0,0,.37-.37s0-.37-.56-.37l-5.63-.18s-.93.28-1-1.11c0,0,.09-11.86.09-12.38h0v-.18h0a6.5,6.5,0,0,1,.47-2.85.39.39,0,0,0-.38-.28Zm17.49,0c-.39,0-.4.52-.4.52a2.11,2.11,0,0,1,.28.84c.09,1.47,0,3.14,0,4.71-.09,5.26-.28,10.06-.28,10.06,0,1-.55.74-.55.74h-6.1c-.64,0-.64.37-.64.37a.47.47,0,0,0,.64.37c.56.09,6.65,0,6.65,0,.93.09.84-1.11.84-1.11.09-2.12.27-2.31.27-2.31a6.31,6.31,0,0,1,1.2-.09c1.67.09.93-1,.93-1-.19-.27-1.3-.27-1.3-.27-1,.09-.92-1-.92-1l.09-6.37a.7.7,0,0,1,.28-.83h1c1.38.09,1-.83,1-.83,0-.47-1.2-.65-1.2-.65-1.11.18-1-.46-1-.46V31.73c.19-1-.46-1-.46-1a.78.78,0,0,0-.34-.06Zm-1.3.21c-.12,0-.25.11-.39.31V45s.37,1.2.93,1.11a2.65,2.65,0,0,0,.09-.74l.18-13.21s-.3-1.4-.81-1.33ZM29.68,31c-.83,0-.92,1.57-.92,1.57l-.1,13.11c.1.65.28.56.28.56a1.69,1.69,0,0,0,.74-1.48s.09-12.47.09-12.65S29.68,31,29.68,31Zm.39,14.77-.13,0a1,1,0,0,0-.61.6h0a.68.68,0,0,0,0,.34.31.31,0,0,0,.18.22.49.49,0,0,0,.38,0h4.51l1.21.28h0l.19-.06a.92.92,0,0,0,.33-.19.42.42,0,0,0,.11-.18.47.47,0,0,0,0-.23,1.43,1.43,0,0,0-.58-.5H31.26l-.43-.1-.56-.17h0a.38.38,0,0,0-.19,0ZM43.79,46a4.35,4.35,0,0,0-.62,0c-.74.47-5.08.1-5.08.1-.28,0-.65.46-.65.46-.09.83,1.29.46,1.2.46h5.17c.83.18.83-.18.83-.18,0-.28-.64-.84-.64-.84a1,1,0,0,0-.21,0ZM37,47l-.07,0s-.83,0-.83,1.11A.94.94,0,0,0,37,49a1,1,0,0,0,.74-1S37.31,47,37,47ZM56.83,30.25s-.55,0-.46.37l-.18,14s0,.65,1,.74a9.1,9.1,0,0,0,1.58,0h2.95s.55.55.55-.19c0,0,.37-11.36.19-13.76,0,0,0-1-.83-1,0,0-3.33.28-3.6,0Zm12.79.11a1.37,1.37,0,0,0-.5.17s.09.37-4.07.18c-.09,0-1.75-.09-1.75.65,0,0-.09,6.65-.09,6.83l-.09,5.54-.19,1.94s.28.37.46.1a6.49,6.49,0,0,1,2.31-.19s2.77.28,3.42-.18c0,0,.46.18.55-.46,0,0,.19-12.29.1-12.47a12.76,12.76,0,0,0,.09-1.94s0-.18-.24-.17Zm-15.28.26a1.41,1.41,0,0,0-.83.46v1.75s0,1-.92.93a2.89,2.89,0,0,0-1.57.46s-.28.92.73.83c0,0,1.58,0,1.67.65l-.09,6.65s.37,1.11-.93,1.11c0,0-1.48-.1-1.48.83,0,0,.28.74,1.57.55,0,0,.93.19.93,1v1.66s-.09.65.74.74H61a.36.36,0,0,0,.37-.37s0-.37-.55-.37l-5.55-.09s-.92.28-1-1.11c0,0,.09-12.38,0-12.56v.18a7.39,7.39,0,0,1,.46-3,.37.37,0,0,0-.37-.28Zm17.58,0c-.4,0-.4.52-.4.52.09.19.28.84.28.84.09,1.47,0,3.14,0,4.71-.09,5.26-.28,10.06-.28,10.06,0,1-.55.74-.55.74h-6.1c-.65,0-.65.37-.65.37a.46.46,0,0,0,.74.28c.56.09,6.65,0,6.65,0,.93.09.83-1.11.83-1.11.1-2.13.28-2.31.28-2.31a6.31,6.31,0,0,1,1.2-.09c1.57.09.83-1,.83-1-.18-.27-1.29-.28-1.29-.28-1,.1-.92-1-.92-1L72.63,36a.72.72,0,0,1,.28-.84h1c1.39.1,1-.83,1-.83,0-.46-1.2-.64-1.2-.64-1.11.18-1-.47-1-.47V31.73c.19-1-.46-1-.46-1a.78.78,0,0,0-.34-.06Zm-1.31.24a.58.58,0,0,0-.38.28V45s.37,1.2.92,1.11a2.65,2.65,0,0,0,.09-.74l.19-13.21s-.31-1.34-.82-1.3ZM55.73,31c-.83,0-.93,1.57-.93,1.57l-.09,13.11c.09.65.28.56.28.56a1.69,1.69,0,0,0,.74-1.48s.09-12.47.09-12.65S55.73,31,55.73,31Zm.53,14.76c-.17,0-.46.06-.72.57,0,0-.18.65.46.46h4.53l1.2.28s1.29-.28,0-1H57.39a9.47,9.47,0,0,1-1-.27.27.27,0,0,0-.11,0Zm13.62.16a3.54,3.54,0,0,0-.48,0c-.74.46-5.08.09-5.08.09-.28,0-.65.47-.65.47-.19.83,1.2.46,1.2.46H70c.83.18.83-.19.83-.19,0-.27-.64-.83-.64-.83a1.08,1.08,0,0,0-.35,0Zm-6.79,1L63,47s-.83,0-.74,1.1a1,1,0,0,0,.93.84.93.93,0,0,0,.74-1s-.49-1-.86-.94ZM49.35,64.89s0,1-.09,2c-.09.55.19,3.14,0,4.43,0,0,0,.46-.92.09,0,0-5.64.1-5.73-.09,0,0-1.57.09-1.66-.74,0,0,.18-6,.09-6.19,0,0-.09-3.23,0-3.6,0,0,.09-3,0-3.42a5.06,5.06,0,0,0-.09-1s0-.46.74-.19c0,0,.28.47,1.66.28a6.27,6.27,0,0,0,2,0,13.93,13.93,0,0,1,2.77,0,.94.94,0,0,1,1.11.83V60l.28.92.28-.18.09-.65V57.22a1.08,1.08,0,0,1,.92-.65,6.11,6.11,0,0,1,1.29,0,17,17,0,0,0,3.24.1,3.7,3.7,0,0,0,2.77-.56s.55,0,.55.37a35.82,35.82,0,0,0,0,4.43s0,6.84-.18,7.3l.09,2.22s.09.92-1.48,1c0,0,.93.1-5.08-.09a4.11,4.11,0,0,0-2,.46s-.18-.09-.18-.64a26.43,26.43,0,0,0,0-4.07l-.1-2.21Zm9.7,6A5.9,5.9,0,0,0,59.79,72s.46.55.37-.46l.09-12.66a3.71,3.71,0,0,1,0-1.11l-.55-.92s-.56-.46-.56.28V70.52Zm-18.38.55a2.52,2.52,0,0,0,1.66.65l5.92.09s.64.1.64.37c0,0-.09.56-.92.37l-7.21-.09-.83.09s-.55-.09.28-1.11Zm-1.29-14.5s-.56.93-.46,1.2v14.6s-.1,1,.74.74c0,0,7.66-.19,8.22,0,0,0,.74.09.46.46,0,0,0,.27-.46.18a51.6,51.6,0,0,1-6.93.19,9.61,9.61,0,0,1-2.31-.1s-.37-.09-.37-1.29a8.1,8.1,0,0,0-.09-1.38s.09-.65-1-.74c0,0-1.57.27-1.57-.65,0,0,.19-.65,1.76-.55,0,0,1.11.18.83-.74l.09-6.47s.19-1.11-.65-1.2H36.7s-1.29,0-1.2-.74a1.83,1.83,0,0,1,1.75-.64s.93.18,1-.93c0,0,0-2.21.46-2.31-.09,0,1,.1.65.37m.74-.09s.27,0,.27.55L40.3,70.61a1.85,1.85,0,0,1-.64,1.48s-.37.46-.37-.28l.18-13.48a2,2,0,0,1,.65-1.48M50.46,72.37s.74-.56,1.11-.46a43.07,43.07,0,0,0,5.17.09c1.2-.19.46-.09.46-.09a2.54,2.54,0,0,0,1.39-.37.4.4,0,0,1,.46.18l.65.74s0,.46-.74.37c0,0-7.11,0-7.39.09.09,0-1.2.19-1.11-.55m.46,1.2a1.75,1.75,0,0,1,.93-.19c.37.1,5.45-.09,5.45-.09s2.21.19,2.58-.18l.56-.19a1.32,1.32,0,0,0,.18-.65V70.7l.09-.46V58.14a1.78,1.78,0,0,0-.36-1.47s0-.37.18-.28.09,0,.09,0,.74-.19.93.09a2.36,2.36,0,0,1,0,1.66s-.1,1.3.55,1.3a.7.7,0,0,0,.74.09S64,59.62,64,60c0,0,0,.83-.74.65l-1,.09a.84.84,0,0,0-.64.92c.09.83,0,6.84,0,6.84s0,.74,1.1.64c0,0,1.39-.09,1.39.37,0,0,.37.84-.65.93,0,0-1.84-.09-1.66.46a13.07,13.07,0,0,1-.18,1.48s.18,1,0,1.2c0,0-.1.55-1.3.46,0,0-7.48,0-8.68.09-.09.19-.83.09-.65-.55m-1.29-.83a.84.84,0,0,1,.74.83c0,.74,0,1.11-.37,1.2a.8.8,0,0,1-1-.65,1,1,0,0,1,.65-1.38" transform="translate(-0.79 -0.79)"/><path d="M35.87,35.33l-.37.83s-.92,4.25-1.48,5.08c0,0-.09.92-.83.18,0,0-1.75-5.35-1.85-5.54l-.55-.37s-.37-.46.28-.55h1.66s.55.46-.19.92a23.76,23.76,0,0,0,1,3.42s.28,1,.55.28L35,36.44l-.28-.93s-.28-.46.09-.46c0,0,.93-.09,1,.28m2.49.74v4.61l-.09.37s-.46.56-.09.65c0,0-.37.28,2.77.28,0,0,1.2.18.92-1.39,0,0-.09-.55-.55.28,0,0-.09.74-1.76.46a1,1,0,0,1-.37-.64V38.75s0-.47.74-.47c0,0,.83.56.93.28,0,0,.27-.74,0-1.11,0,0-.37,0-.47.09s-.27.56-1,.19a1.66,1.66,0,0,1-.09-1.29s-.1-1.11.64-1c0,0,.93.19.93.46,0,0,.18.56.46-.09l-.19-.65a.29.29,0,0,0-.37-.18s-1.47.18-1.66,0l-1.2.09a.49.49,0,0,0,.37.65c0,.09.09.18.09.37m26.51-.74c-.09-.37.74-.37.74-.37l.46.09a3.37,3.37,0,0,1,.65.09.52.52,0,0,1-.19.74l-.18.56v4.61a5.61,5.61,0,0,0,.46.65c0,.37-.46.28-.46.28H65.06c-.37,0-.28-.46-.28-.46.46-.19.55-1,.55-1V36.16ZM59,39.39l-.09,1.39.37.64c.27.37-.19.65-.19.65l-1.38-.18c-.28-.1,0-.56,0-.56.37-.18.37-.74.37-.74V36.16c0-.19-.37-.65-.37-.65-.28,0-.19-.46-.19-.46.09-.18.83-.09.83-.09h1.85c1.76.55,1.48,1.85,1.48,1.85a1.82,1.82,0,0,1-1.2,1.75l-.1.74,1.3,2a.59.59,0,0,1,.18.37c-.18.46-.92,0-.92,0l-1.57-2.49c-.19-.19-.37.18-.37.18m0-3.51v2.31a.8.8,0,0,0,1.29-.28c1.11-1,0-2-.18-2.3s-1,0-1,0ZM45.47,61.74s.1,3.24,0,3.7v.74a1.64,1.64,0,0,0,.47.64s.18.65-.28.56a7,7,0,0,0-1.39,0s-.64,0,0-.74a2.17,2.17,0,0,0,.19-1.11s0-3.69.09-3.88c0,0,.09-.46-.18-.65h-.56l-.64.65s-.19.65-.47,0v-.37l.37-1h.28a2.67,2.67,0,0,0,.74.37h2l.74-.37s.28,0,.18.46c0,0,.1,1-.46,1.11a.92.92,0,0,1-.55-.65c0-.09-.56-.46-.56.55m9.61-1.2a1.5,1.5,0,0,0-1.66,1.67s-.19,1.2,1.66,2c0,0,1.39.64,1.29,1.48,0,0-.18,1.47-1.66.73,0,0-.74-.37-.65-.73,0,0-.18-.47-.46-.37,0,0-.27.09-.18,1.57,0,0,0,.55.64,0l.37.09a1.64,1.64,0,0,0,2.22-.19,1.7,1.7,0,0,0,.28-2.21,3.41,3.41,0,0,0-1.57-1.3,2.68,2.68,0,0,1-1.2-1.2.93.93,0,0,1,1.47-.64,2.84,2.84,0,0,0,.74.64s.37,0,.28-.83l-.09-.64s-.09-.47-.74,0c0-.1-.56.18-.74-.1m-5.26-.92a1.16,1.16,0,0,1,.36.65A43.61,43.61,0,0,1,51.85,66a1.73,1.73,0,0,0,.64.74c.74.28,0,.46,0,.46a5.43,5.43,0,0,1-1.29,0c-.55-.09-.28-.27-.28-.27.19-.19,0-1.11,0-1.11a2.1,2.1,0,0,0-.46-.93c-.18-.09-.46.28-.46.28s-.46.19-.55,0a1.5,1.5,0,0,0-.37-.37c-.56,0-.74,1.3-.74,1.3.27,1.1,0,.92,0,.92-.28.37-1.11.09-1.11.09-.37-.09-.09-.37-.09-.37.46-.09.64-.64.64-.64.19-.28,1.67-6,1.67-6s0-.65.37-.46m-.74,3c0,.18-.37,1.47-.37,1.47l.27.46h.93c.18,0,.27-.18.27-.46s-.46-1.57-.46-1.57l-.18-.27Z" transform="translate(-0.79 -0.79)"/></svg>